<svg width="13" height="16" viewBox="0 0 13 16" fill="none" xmlns="http://www.w3.org/2000/svg">
<path d="M11.0004 5.33333H10.2145V3.80987C10.2145 1.70664 8.45523 0 6.2861 0C4.11759 0 2.35774 1.70664 2.35774 3.80927V5.33333H1.57183C0.703695 5.33333 -2.12537e-08 6.01526 0 6.8568V14.4759C0 15.3181 0.703695 16 1.57183 16H11.0004C11.8685 16 12.5722 15.3181 12.5722 14.4765V6.8568C12.5722 6.01466 11.8685 5.33273 11.0004 5.33273V5.33333ZM6.28671 12.1907C5.41858 12.1907 4.71488 11.5088 4.71488 10.6667C4.71488 9.82453 5.41858 9.1432 6.28671 9.1432C7.15484 9.1432 7.85854 9.82453 7.85854 10.6667C7.85854 11.5088 7.15484 12.1901 6.28671 12.1901V12.1907ZM8.72304 5.33333H3.85037V3.80987C3.85037 2.50646 4.94279 1.4479 6.28671 1.4479C7.63002 1.4479 8.72183 2.50646 8.72183 3.80927V5.33333H8.72304Z" fill="#5A577D"/>
</svg>
