<svg width="16" height="15" viewBox="0 0 16 15" fill="none" xmlns="http://www.w3.org/2000/svg">
<path d="M8.93103 9.846H10.8808V12.8335C10.8808 13.1794 10.8283 13.4808 10.7235 13.7376C10.6187 13.9944 10.4798 14.2041 10.3068 14.3665C10.1339 14.529 9.9321 14.6496 9.70149 14.7282C9.47088 14.8068 9.22454 14.8461 8.96248 14.8461H2.01265C1.76107 14.8461 1.51473 14.7963 1.27364 14.6967C1.03254 14.5972 0.820272 14.4583 0.63683 14.2801C0.453388 14.1019 0.304013 13.8922 0.188707 13.6511C0.0734003 13.41 0.0157471 13.1427 0.0157471 12.8492V1.99992C0.0157471 1.74834 0.0760209 1.50725 0.196569 1.27664C0.317116 1.04602 0.471732 0.841616 0.660415 0.663415C0.849098 0.485214 1.05875 0.341081 1.28936 0.231016C1.51997 0.120951 1.75059 0.065918 1.9812 0.065918H8.88386C9.1564 0.065918 9.41322 0.126192 9.65432 0.246739C9.89541 0.367287 10.1077 0.519282 10.2911 0.702724C10.4746 0.886166 10.6187 1.09319 10.7235 1.32381C10.8283 1.55442 10.8808 1.77979 10.8808 1.99992V4.89307H8.93103L8.94676 1.88986H1.99692L1.9812 12.8492H8.93103V9.846ZM15.6922 6.90569C16.08 7.22016 16.0905 7.52939 15.7236 7.83338C15.514 7.99062 15.286 8.18454 15.0397 8.41515C14.7933 8.64577 14.5365 8.88424 14.2692 9.13058C14.0019 9.37691 13.7372 9.62063 13.4752 9.86172C13.2131 10.1028 12.972 10.3125 12.7519 10.4907C12.5108 10.6794 12.3037 10.7737 12.1308 10.7737C11.9578 10.7737 11.8713 10.6479 11.8713 10.3963C11.8923 10.2496 11.8949 10.0661 11.8792 9.846C11.8635 9.62587 11.8556 9.43719 11.8556 9.27995C11.8556 9.10175 11.7927 8.99169 11.6669 8.94976C11.5412 8.90783 11.3892 8.88686 11.211 8.88686H10.582H9.62287C9.26647 8.88686 8.89172 8.88424 8.49863 8.879C8.10554 8.87376 7.7308 8.87114 7.3744 8.87114H6.41526H5.77059C5.68673 8.87114 5.59501 8.86328 5.49542 8.84755C5.39584 8.83183 5.30674 8.79776 5.22812 8.74535C5.14951 8.69294 5.08661 8.61956 5.03944 8.52522C4.99227 8.43088 4.96868 8.31033 4.96868 8.16358C4.96868 7.96441 4.96606 7.72856 4.96082 7.45601C4.95558 7.18347 4.9582 6.94238 4.96868 6.73273C4.96868 6.4497 5.03682 6.25578 5.17309 6.15095C5.30936 6.04613 5.52949 5.99896 5.83348 6.00944H6.35236H7.26433C7.59977 6.00944 7.95879 6.01206 8.3414 6.0173C8.72401 6.02254 9.08827 6.02517 9.43419 6.02517H10.3776H10.9751C11.2372 6.03565 11.4599 6.01468 11.6434 5.96227C11.8268 5.90986 11.9185 5.79455 11.9185 5.61635C11.9185 5.4696 11.9238 5.3045 11.9342 5.12106C11.9447 4.93762 11.95 4.77252 11.95 4.62576C11.95 4.38467 12.0155 4.23267 12.1465 4.16978C12.2775 4.10688 12.4426 4.15406 12.6418 4.31129C12.841 4.47901 13.0742 4.67556 13.3415 4.90093C13.6088 5.1263 13.8787 5.35691 14.1513 5.59277C14.4238 5.82862 14.6937 6.06185 14.961 6.29247C15.2283 6.52308 15.4721 6.72749 15.6922 6.90569Z" fill="#5A577D"/>
</svg>
